<?xml version="1.0" standalone="no"?>
<!DOCTYPE svg PUBLIC "-//W3C//DTD SVG 20010904//EN"
 "http://www.w3.org/TR/2001/REC-SVG-20010904/DTD/svg10.dtd">
<svg version="1.0" xmlns="http://www.w3.org/2000/svg"
 width="50.000000pt" height="50.000000pt" viewBox="0 0 50.000000 50.000000"
 preserveAspectRatio="xMidYMid meet">
<metadata>
Created by potrace 1.16, written by Peter Selinger 2001-2019
</metadata>
<g transform="translate(0.000000,50.000000) scale(0.010000,-0.010000)"
fill="#000000" stroke="none">
<path d="M1518 4480 c-69 -20 -125 -77 -178 -180 -7 -14 -35 -50 -61 -80 -26
-30 -73 -91 -104 -135 l-57 -80 9 85 c12 124 9 291 -6 318 -17 31 -31 18 -67
-61 -26 -56 -29 -73 -29 -167 0 -98 2 -110 31 -167 l30 -62 -47 -98 c-27 -54
-58 -129 -70 -168 -12 -38 -25 -74 -29 -78 -5 -5 -11 48 -15 117 -8 136 -20
169 -52 150 -78 -46 -65 -271 21 -364 23 -24 23 -29 14 -90 -11 -72 -4 -261
12 -329 6 -24 9 -45 7 -47 -2 -2 -20 20 -41 50 -64 93 -139 156 -186 156 -18
0 -11 -33 21 -100 37 -80 111 -152 181 -178 50 -19 51 -19 83 -103 18 -46 56
-131 84 -187 l52 -104 -45 32 c-59 40 -145 80 -174 80 -71 0 2 -130 102 -183
29 -15 62 -21 110 -23 l68 -1 63 -84 c34 -46 93 -117 131 -158 38 -41 60 -71
49 -67 -81 34 -243 46 -252 19 -5 -15 74 -69 128 -88 44 -16 170 -19 204 -6
15 6 35 -2 79 -32 72 -49 163 -91 243 -111 97 -25 105 -18 15 13 -97 34 -112
45 -112 81 0 61 -135 259 -160 234 -14 -14 8 -93 45 -161 19 -35 31 -63 27
-63 -13 1 -138 93 -191 142 -44 40 -51 51 -51 85 -1 118 -70 293 -117 293 -25
0 -12 -123 22 -205 34 -82 -141 167 -200 286 l-35 68 26 54 c31 70 40 164 24
264 -15 94 -17 99 -41 77 -33 -29 -53 -111 -52 -206 0 -49 -1 -88 -2 -88 -7 0
-66 190 -80 258 -23 112 -21 123 28 164 26 22 58 64 80 106 42 80 72 188 54
199 -16 10 -101 -90 -142 -169 -20 -38 -39 -67 -41 -65 -9 8 16 171 36 247 11
41 30 99 41 128 20 47 24 52 53 52 38 0 117 37 169 81 54 45 120 130 109 141
-16 16 -119 -32 -242 -111 l-25 -16 29 50 c45 77 119 185 176 256 42 52 66 71
128 103 42 21 90 50 105 65 30 27 87 130 87 156 0 16 -28 19 -72 5z"/>
<path d="M3410 4476 c0 -27 56 -129 87 -157 15 -15 63 -44 105 -65 62 -32 86
-51 128 -103 88 -109 218 -313 189 -295 -8 4 -37 22 -65 40 -63 40 -172 87
-185 79 -28 -18 104 -155 192 -199 29 -14 67 -26 85 -26 30 0 34 -4 52 -52 35
-94 53 -161 67 -258 21 -138 19 -143 -26 -59 -44 85 -129 186 -146 176 -18
-11 12 -119 54 -199 22 -42 54 -84 80 -106 49 -41 51 -53 28 -160 -14 -69 -73
-262 -79 -262 -2 0 -4 42 -3 93 0 74 -4 102 -23 144 -25 58 -44 80 -55 63 -3
-6 -11 -51 -18 -100 -13 -104 -2 -196 32 -261 l21 -40 -34 -68 c-60 -119 -234
-367 -202 -286 33 79 46 205 23 205 -46 0 -116 -175 -117 -292 0 -32 -8 -44
-51 -85 -51 -48 -177 -142 -191 -143 -4 0 8 28 27 63 38 69 59 147 45 161 -24
24 -160 -171 -160 -229 0 -37 -23 -55 -110 -85 -99 -34 -69 -41 36 -9 77 24
168 67 231 111 42 28 45 29 103 18 75 -14 152 -1 221 36 109 60 101 89 -23 79
-42 -3 -95 -12 -118 -20 -24 -8 -45 -15 -48 -15 -4 0 21 28 55 62 34 35 93
105 132 157 l70 95 51 -3 c93 -5 179 40 230 118 34 54 38 77 12 85 -33 11
-120 -27 -209 -90 -18 -13 -10 9 36 102 33 66 70 149 82 186 22 64 25 67 75
87 65 27 123 77 162 138 31 49 60 129 50 139 -24 23 -130 -59 -193 -151 -21
-30 -40 -54 -41 -52 -2 1 3 39 11 82 16 88 18 220 5 305 -7 49 -5 58 15 80 47
52 68 110 72 200 4 90 -11 141 -49 164 -31 19 -41 -8 -52 -146 -6 -73 -14
-128 -17 -123 -3 6 -16 42 -28 81 -12 39 -44 114 -70 167 l-48 97 31 62 c29
58 31 70 31 168 0 97 -2 110 -32 173 -34 72 -58 85 -70 40 -10 -39 -10 -201 0
-303 l9 -85 -57 80 c-31 44 -78 105 -104 135 -26 30 -62 81 -80 112 -54 97
-109 141 -190 154 -34 5 -41 4 -41 -10z"/>
<path d="M2605 3660 c-38 -3 -123 -4 -187 -2 l-118 5 0 -26 c0 -14 -3 -32 -6
-41 -5 -14 3 -16 54 -16 43 0 63 -5 73 -17 17 -20 24 -279 12 -453 l-8 -115
-104 313 -104 312 -142 0 c-121 0 -144 -2 -149 -16 -12 -31 -6 -44 19 -44 33
0 86 -22 104 -44 8 -10 13 -38 12 -74 -2 -89 -69 -715 -79 -743 -12 -29 -39
-54 -69 -63 -13 -4 -23 -13 -23 -19 0 -7 -3 -21 -6 -32 -5 -20 -1 -20 143 -17
81 2 149 5 149 6 1 0 5 16 9 34 l7 32 -45 0 c-53 0 -77 19 -77 58 0 36 48 624
56 685 3 27 10 45 14 40 11 -12 270 -745 270 -764 0 -23 -29 -45 -77 -59 -37
-11 -42 -16 -46 -49 -2 -20 -4 -37 -3 -37 1 -1 24 2 51 6 28 5 125 9 218 9
152 1 167 3 167 19 0 9 3 27 6 40 6 21 4 22 -63 22 -56 0 -73 4 -87 19 -36 39
-24 90 108 450 69 189 127 346 130 349 10 10 14 -26 42 -376 l27 -353 -20 -27
c-11 -15 -34 -31 -52 -36 -26 -8 -31 -14 -31 -40 l0 -32 158 4 c86 2 158 5
159 6 2 2 6 17 9 34 6 31 6 32 -30 32 -76 0 -86 36 -110 400 -32 482 -32 455
-3 484 15 15 43 28 66 32 24 4 41 12 41 19 0 8 3 20 6 29 5 14 -11 16 -137 16
l-144 0 -74 -218 c-41 -119 -94 -269 -117 -332 l-43 -115 0 65 c-1 36 4 164 9
285 12 252 16 262 91 281 41 10 44 13 47 47 3 31 0 37 -15 35 -10 0 -49 -4
-88 -8z"/>
<path d="M420 1917 c-49 -25 -59 -81 -25 -134 31 -47 117 -36 143 20 l13 27
1948 0 1948 0 11 -24 c32 -70 122 -72 155 -4 18 37 18 39 0 75 -33 69 -123 67
-155 -3 l-11 -24 -1948 0 c-1930 0 -1948 0 -1954 20 -8 26 -53 60 -79 60 -11
0 -32 -6 -46 -13z"/>
<path d="M840 1669 c-36 -4 -102 -5 -147 -2 -71 5 -83 3 -83 -10 0 -8 -3 -23
-6 -32 -5 -13 -2 -15 19 -10 32 8 63 -1 71 -21 10 -27 -72 -654 -89 -681 -9
-13 -36 -33 -61 -43 -29 -13 -44 -26 -44 -37 0 -17 11 -18 148 -15 81 2 150 7
153 10 4 4 10 17 13 28 6 20 4 21 -37 17 -67 -8 -81 12 -73 101 11 120 86 569
101 602 10 24 23 34 51 41 29 6 39 15 45 36 4 15 7 26 6 26 -1 -1 -31 -5 -67
-10z"/>
<path d="M2436 1667 c-26 -11 -54 -62 -215 -387 -175 -354 -188 -376 -223
-393 -32 -16 -58 -51 -46 -62 2 -2 72 -5 156 -7 111 -2 152 0 152 9 0 6 3 18
6 27 5 14 -3 16 -54 16 -71 0 -97 18 -87 58 3 13 23 63 45 111 l39 86 105 9
c58 4 121 5 140 2 33 -6 34 -9 45 -69 25 -141 25 -153 4 -174 -11 -11 -41 -23
-67 -27 -39 -6 -46 -11 -46 -29 0 -22 1 -22 158 -18 86 1 158 4 158 5 1 0 4
10 8 22 5 18 0 23 -34 33 -53 16 -63 38 -94 202 -26 136 -96 564 -96 586 0 16
-16 16 -54 0z m13 -304 c16 -92 27 -171 24 -175 -4 -8 -233 -12 -233 -4 0 4
145 319 161 348 16 29 15 32 48 -169z"/>
<path d="M1076 1663 c-14 -15 -4 -33 22 -39 50 -12 72 -32 72 -67 0 -43 -125
-619 -140 -647 -6 -12 -26 -28 -45 -35 -22 -10 -34 -23 -37 -40 -4 -20 -2 -25
9 -21 8 3 59 6 114 6 94 0 100 1 108 23 8 20 5 23 -27 27 -19 3 -40 12 -45 21
-7 12 6 99 48 315 32 165 61 305 64 312 4 7 40 -135 80 -315 88 -397 89 -403
102 -403 10 0 75 132 254 518 55 117 101 208 104 201 7 -21 -21 -583 -30 -607
-5 -13 -24 -29 -43 -37 -29 -13 -46 -32 -46 -53 0 -6 242 -4 246 1 1 1 5 12 8
25 6 19 4 22 -18 22 -48 0 -56 21 -56 142 0 121 17 485 26 535 6 41 25 60 73
73 24 6 41 17 44 30 5 18 -1 19 -104 17 l-110 -2 -102 -235 c-142 -323 -191
-430 -199 -430 -4 0 -12 17 -17 38 -19 67 -99 435 -117 532 l-17 96 -107 1
c-60 1 -111 -1 -114 -4z"/>
<path d="M2838 1645 c-4 -18 3 -24 41 -38 66 -23 99 -64 181 -224 l73 -142
-118 -131 c-137 -152 -184 -195 -242 -222 -33 -15 -43 -24 -43 -43 0 -24 0
-24 128 -27 70 -2 127 -3 128 -3 1 0 4 12 7 26 6 23 3 27 -23 33 -25 5 -30 10
-30 35 0 23 18 52 75 118 129 152 143 168 147 163 25 -28 128 -245 128 -268 0
-31 -17 -42 -82 -56 -22 -5 -49 -42 -36 -50 1 -1 82 1 178 4 l175 5 0 23 c0
19 -9 27 -39 37 -60 21 -88 57 -181 229 -72 136 -83 162 -72 175 7 9 68 78
135 153 99 111 133 142 177 163 36 17 55 32 55 43 0 16 -13 18 -129 19 -118 1
-130 0 -134 -17 -6 -22 0 -30 23 -30 32 0 43 -25 25 -59 -16 -33 -181 -234
-194 -239 -7 -2 -95 184 -115 241 -8 25 24 53 71 60 28 5 42 13 45 25 5 18 -5
19 -173 18 -173 0 -178 0 -181 -21z"/>
<path d="M3675 1652 c-9 -25 -6 -29 36 -41 61 -18 104 -72 185 -228 l73 -143
-113 -122 c-131 -142 -222 -228 -242 -228 -18 0 -54 -36 -54 -54 0 -21 257
-28 265 -8 10 26 5 42 -14 42 -26 0 -44 26 -37 53 5 22 171 224 209 255 13 11
23 -3 76 -102 75 -140 82 -167 50 -190 -13 -9 -33 -16 -45 -16 -37 0 -54 -11
-54 -34 0 -21 2 -21 172 -18 95 2 174 5 174 5 1 1 5 12 8 24 6 19 2 23 -34 33
-22 6 -54 23 -70 38 -27 24 -200 332 -200 355 0 12 183 219 247 278 27 25 66
52 86 58 20 7 37 16 37 21 0 5 2 15 5 23 5 11 -16 14 -127 13 -127 -1 -133 -2
-136 -22 -2 -17 4 -23 27 -27 24 -5 31 -12 31 -30 0 -22 -76 -125 -168 -227
l-40 -45 -45 95 c-24 52 -51 112 -58 133 -13 37 -12 40 9 57 12 10 40 21 62
25 29 5 40 12 40 24 0 16 -16 17 -175 17 -140 0 -175 -2 -180 -14z"/>
<path d="M380 670 c-27 -27 -35 -65 -20 -101 15 -36 37 -49 82 -49 36 0 78 30
78 55 0 13 247 15 1953 15 l1952 -1 20 -32 c17 -27 27 -32 67 -35 40 -3 49 1
67 24 27 34 27 84 0 118 -18 23 -27 27 -68 24 -41 -3 -49 -7 -70 -40 l-24 -38
-1942 0 -1943 0 -12 30 c-7 17 -21 35 -31 40 -31 17 -87 12 -109 -10z"/>
</g>
</svg>
